<?xml version="1.0" encoding="UTF-8" standalone="no"?>
<!-- Created with Inkscape (http://www.inkscape.org/) -->

<svg
   xmlns:dc="http://purl.org/dc/elements/1.1/"
   xmlns:cc="http://creativecommons.org/ns#"
   xmlns:rdf="http://www.w3.org/1999/02/22-rdf-syntax-ns#"
   xmlns:svg="http://www.w3.org/2000/svg"
   xmlns="http://www.w3.org/2000/svg"
   xmlns:sodipodi="http://sodipodi.sourceforge.net/DTD/sodipodi-0.dtd"
   xmlns:inkscape="http://www.inkscape.org/namespaces/inkscape"
   width="300"
   height="600"
   viewBox="0 0 79.374998 158.75001"
   version="1.1"
   id="svg8"
   inkscape:version="0.92.2 (5c3e80d, 2017-08-06)"
   sodipodi:docname="background.svg"
   inkscape:export-filename="C:\Users\skarab\Desktop\PHPOKEY\imgs\background.png"
   inkscape:export-xdpi="96"
   inkscape:export-ydpi="96">
  <defs
     id="defs2" />
  <sodipodi:namedview
     id="base"
     pagecolor="#ffffff"
     bordercolor="#666666"
     borderopacity="1.0"
     inkscape:pageopacity="0.0"
     inkscape:pageshadow="2"
     inkscape:zoom="1.4142136"
     inkscape:cx="87.967617"
     inkscape:cy="209.08055"
     inkscape:document-units="px"
     inkscape:current-layer="g1242"
     showgrid="false"
     inkscape:window-width="1920"
     inkscape:window-height="1017"
     inkscape:window-x="-8"
     inkscape:window-y="-8"
     inkscape:window-maximized="1"
     units="px"
     fit-margin-top="0"
     fit-margin-left="0"
     fit-margin-right="0"
     fit-margin-bottom="0" />
  <metadata
     id="metadata5">
    <rdf:RDF>
      <cc:Work
         rdf:about="">
        <dc:format>image/svg+xml</dc:format>
        <dc:type
           rdf:resource="http://purl.org/dc/dcmitype/StillImage" />
        <dc:title />
      </cc:Work>
    </rdf:RDF>
  </metadata>
  <g
     inkscape:label="Calque 1"
     inkscape:groupmode="layer"
     id="layer1"
     transform="translate(3.0380243e-8,-138.24998)">
    <g
       id="g1242"
       inkscape:export-xdpi="96"
       inkscape:export-ydpi="96">
      <g
         id="g876"
         transform="translate(1.1e-5,-99.880284)">
        <path
           id="path868"
           transform="matrix(0.26458334,0,0,0.26458334,-1.103038e-5,138.11771)"
           d="m 24.779297,481 v 1 h 7.923828 a 43.499998,43.499998 0 0 1 0.152344,-1 z m 93.724613,0 a 43.499998,43.499998 0 0 1 0.13281,1 h 7.90234 v -1 z m -93.724613,14 v 1 h 8.037109 a 43.499998,43.499998 0 0 1 -0.132812,-1 z m 93.835933,0 a 43.499998,43.499998 0 0 1 -0.15039,1 h 8.07422 v -1 z"
           style="opacity:1;fill:#ff0000;fill-opacity:1;stroke:none;stroke-width:1.00157475;stroke-linecap:round;stroke-linejoin:round;stroke-miterlimit:4;stroke-dasharray:none;stroke-opacity:1;paint-order:stroke fill markers"
           inkscape:connector-curvature="0" />
        <circle
           r="11.509375"
           cy="267.36667"
           cx="20.018255"
           id="circle870"
           style="opacity:1;fill:none;fill-opacity:1;stroke:#ff2a2a;stroke-width:0.26458335;stroke-linecap:round;stroke-linejoin:round;stroke-miterlimit:4;stroke-dasharray:none;stroke-opacity:1;paint-order:stroke fill markers" />
        <path
           id="path872"
           transform="scale(0.26458333)"
           d="m 75.65625,1006.0195 c -2.479351,0 -4.494133,2.0226 -4.494141,4.502 8e-6,2.4793 2.01479,4.4961 4.494141,4.4961 2.479355,0 4.503899,-2.0168 4.503906,-4.4961 -7e-6,-2.4794 -2.024551,-4.502 -4.503906,-4.502 z m 0,1.0039 c 1.398378,0 2.5912,0.8163 3.152344,1.9961 h -6.302735 c 0.561145,-1.1798 1.752016,-1.9961 3.150391,-1.9961 z m -3.152344,4.9961 h 6.306641 c -0.560336,1.182 -1.754354,2.002 -3.154297,2.002 -1.399941,0 -2.592007,-0.82 -3.152344,-2.002 z"
           style="color:#000000;font-style:normal;font-variant:normal;font-weight:normal;font-stretch:normal;font-size:medium;line-height:normal;font-family:sans-serif;font-variant-ligatures:normal;font-variant-position:normal;font-variant-caps:normal;font-variant-numeric:normal;font-variant-alternates:normal;font-feature-settings:normal;text-indent:0;text-align:start;text-decoration:none;text-decoration-line:none;text-decoration-style:solid;text-decoration-color:#000000;letter-spacing:normal;word-spacing:normal;text-transform:none;writing-mode:lr-tb;direction:ltr;text-orientation:mixed;dominant-baseline:auto;baseline-shift:baseline;text-anchor:start;white-space:normal;shape-padding:0;clip-rule:nonzero;display:inline;overflow:visible;visibility:visible;opacity:1;isolation:auto;mix-blend-mode:normal;color-interpolation:sRGB;color-interpolation-filters:linearRGB;solid-color:#000000;solid-opacity:1;vector-effect:none;fill:#ff2a2a;fill-opacity:1;fill-rule:nonzero;stroke:none;stroke-width:0.99999994;stroke-linecap:round;stroke-linejoin:round;stroke-miterlimit:4;stroke-dasharray:none;stroke-dashoffset:0;stroke-opacity:1;paint-order:stroke fill markers;color-rendering:auto;image-rendering:auto;shape-rendering:auto;text-rendering:auto;enable-background:accumulate"
           inkscape:connector-curvature="0" />
        <path
           inkscape:connector-curvature="0"
           id="path874"
           d="m 19.237683,263.1416 v 2.24068 h -2.224154 v 0.26458 h 2.224154 0.264583 v -0.26458 -2.24068 z m 1.296564,0 v 2.24068 0.26458 h 0.264583 2.224151 v -0.26458 H 20.79883 v -2.24068 z m -3.520718,5.94485 v 0.26458 h 2.224154 v 2.2407 h 0.264583 v -2.2407 -0.26458 h -0.264583 z m 3.520718,0 v 0.26458 2.2407 h 0.264583 v -2.2407 h 2.224151 v -0.26458 H 20.79883 Z"
           style="opacity:1;fill:#ff0000;fill-opacity:1;stroke:none;stroke-width:0.26499999;stroke-linecap:round;stroke-linejoin:round;stroke-miterlimit:4;stroke-dasharray:none;stroke-opacity:1;paint-order:stroke fill markers" />
      </g>
      <g
         transform="translate(39.158363,-99.880284)"
         id="g886">
        <path
           inkscape:connector-curvature="0"
           style="opacity:1;fill:#ff0000;fill-opacity:1;stroke:none;stroke-width:1.00157475;stroke-linecap:round;stroke-linejoin:round;stroke-miterlimit:4;stroke-dasharray:none;stroke-opacity:1;paint-order:stroke fill markers"
           d="m 24.779297,481 v 1 h 7.923828 a 43.499998,43.499998 0 0 1 0.152344,-1 z m 93.724613,0 a 43.499998,43.499998 0 0 1 0.13281,1 h 7.90234 v -1 z m -93.724613,14 v 1 h 8.037109 a 43.499998,43.499998 0 0 1 -0.132812,-1 z m 93.835933,0 a 43.499998,43.499998 0 0 1 -0.15039,1 h 8.07422 v -1 z"
           transform="matrix(0.26458334,0,0,0.26458334,-1.103038e-5,138.11771)"
           id="path878" />
        <circle
           style="opacity:1;fill:none;fill-opacity:1;stroke:#ff2a2a;stroke-width:0.26458335;stroke-linecap:round;stroke-linejoin:round;stroke-miterlimit:4;stroke-dasharray:none;stroke-opacity:1;paint-order:stroke fill markers"
           id="circle880"
           cx="20.018255"
           cy="267.36667"
           r="11.509375" />
        <path
           inkscape:connector-curvature="0"
           style="color:#000000;font-style:normal;font-variant:normal;font-weight:normal;font-stretch:normal;font-size:medium;line-height:normal;font-family:sans-serif;font-variant-ligatures:normal;font-variant-position:normal;font-variant-caps:normal;font-variant-numeric:normal;font-variant-alternates:normal;font-feature-settings:normal;text-indent:0;text-align:start;text-decoration:none;text-decoration-line:none;text-decoration-style:solid;text-decoration-color:#000000;letter-spacing:normal;word-spacing:normal;text-transform:none;writing-mode:lr-tb;direction:ltr;text-orientation:mixed;dominant-baseline:auto;baseline-shift:baseline;text-anchor:start;white-space:normal;shape-padding:0;clip-rule:nonzero;display:inline;overflow:visible;visibility:visible;opacity:1;isolation:auto;mix-blend-mode:normal;color-interpolation:sRGB;color-interpolation-filters:linearRGB;solid-color:#000000;solid-opacity:1;vector-effect:none;fill:#ff2a2a;fill-opacity:1;fill-rule:nonzero;stroke:none;stroke-width:0.99999994;stroke-linecap:round;stroke-linejoin:round;stroke-miterlimit:4;stroke-dasharray:none;stroke-dashoffset:0;stroke-opacity:1;paint-order:stroke fill markers;color-rendering:auto;image-rendering:auto;shape-rendering:auto;text-rendering:auto;enable-background:accumulate"
           d="m 75.65625,1006.0195 c -2.479351,0 -4.494133,2.0226 -4.494141,4.502 8e-6,2.4793 2.01479,4.4961 4.494141,4.4961 2.479355,0 4.503899,-2.0168 4.503906,-4.4961 -7e-6,-2.4794 -2.024551,-4.502 -4.503906,-4.502 z m 0,1.0039 c 1.398378,0 2.5912,0.8163 3.152344,1.9961 h -6.302735 c 0.561145,-1.1798 1.752016,-1.9961 3.150391,-1.9961 z m -3.152344,4.9961 h 6.306641 c -0.560336,1.182 -1.754354,2.002 -3.154297,2.002 -1.399941,0 -2.592007,-0.82 -3.152344,-2.002 z"
           transform="scale(0.26458333)"
           id="path882" />
        <path
           style="opacity:1;fill:#ff0000;fill-opacity:1;stroke:none;stroke-width:0.26499999;stroke-linecap:round;stroke-linejoin:round;stroke-miterlimit:4;stroke-dasharray:none;stroke-opacity:1;paint-order:stroke fill markers"
           d="m 19.237683,263.1416 v 2.24068 h -2.224154 v 0.26458 h 2.224154 0.264583 v -0.26458 -2.24068 z m 1.296564,0 v 2.24068 0.26458 h 0.264583 2.224151 v -0.26458 H 20.79883 v -2.24068 z m -3.520718,5.94485 v 0.26458 h 2.224154 v 2.2407 h 0.264583 v -2.2407 -0.26458 h -0.264583 z m 3.520718,0 v 0.26458 2.2407 h 0.264583 v -2.2407 h 2.224151 v -0.26458 H 20.79883 Z"
           id="path884"
           inkscape:connector-curvature="0" />
      </g>
      <rect
         y="138.51459"
         x="0.26458332"
         height="158.22084"
         width="78.845833"
         id="rect1161"
         style="opacity:0.13500001;fill:#ffffff;fill-opacity:1;stroke:#ff2a2a;stroke-width:0.5291667;stroke-linecap:round;stroke-linejoin:round;stroke-miterlimit:4;stroke-dasharray:none;stroke-opacity:1;paint-order:stroke fill markers" />
      <path
         inkscape:connector-curvature="0"
         id="path1118"
         d="m 44.405894,149.45094 a 4.7183397,4.6186932 0 0 0 -0.001,-0.0307 h -9.433778 a 4.7183397,4.6186932 0 0 0 -0.0018,0.0307 4.7183397,4.6186932 0 0 0 4.71819,4.61849 4.7183397,4.6186932 0 0 0 4.718438,-4.61849 z"
         style="opacity:1;fill:#28b8f3;fill-opacity:1;stroke:#ff2a2a;stroke-width:0.26458332;stroke-linecap:round;stroke-linejoin:round;stroke-miterlimit:4;stroke-dasharray:none;stroke-opacity:1;paint-order:stroke fill markers" />
      <rect
         y="149.09792"
         x="2.1681325"
         height="0.52916664"
         width="74.958931"
         id="rect830"
         style="opacity:1;fill:#ff2a2a;fill-opacity:1;stroke:none;stroke-width:0.52916658;stroke-linecap:round;stroke-linejoin:round;stroke-miterlimit:4;stroke-dasharray:none;stroke-opacity:1;paint-order:stroke fill markers" />
      <path
         style="opacity:1;fill:#28b8f3;fill-opacity:1;stroke:#ff2a2a;stroke-width:0.26458332;stroke-linecap:round;stroke-linejoin:round;stroke-miterlimit:4;stroke-dasharray:none;stroke-opacity:1;paint-order:stroke fill markers"
         d="m 34.969116,285.56344 a 4.7183397,4.6186932 0 0 0 0.0012,0.0307 h 9.433778 a 4.7183397,4.6186932 0 0 0 0.002,-0.0307 4.7183397,4.6186932 0 0 0 -4.718186,-4.61849 4.7183397,4.6186932 0 0 0 -4.718434,4.61849 z"
         id="path1116"
         inkscape:connector-curvature="0" />
      <rect
         y="285.35834"
         x="2.1572454"
         height="0.52916664"
         width="75.03418"
         id="rect834"
         style="opacity:1;fill:#ff2a2a;fill-opacity:1;stroke:none;stroke-width:0.52916658;stroke-linecap:round;stroke-linejoin:round;stroke-miterlimit:4;stroke-dasharray:none;stroke-opacity:1;paint-order:stroke fill markers" />
      <rect
         style="opacity:1;fill:#ff2a2a;fill-opacity:1;stroke:none;stroke-width:0.52916658;stroke-linecap:round;stroke-linejoin:round;stroke-miterlimit:4;stroke-dasharray:none;stroke-opacity:1;paint-order:stroke fill markers"
         id="rect832"
         width="78.8769"
         height="0.52916664"
         x="0.2490575"
         y="217.36041" />
      <path
         inkscape:connector-curvature="0"
         id="circle851"
         d="m 0.252708,209.81948 a 7.9177083,7.805256 0 0 0 -0.05271,0.002 v 15.60572 a 7.9177083,7.805256 0 0 0 0.05271,0.003 7.9177083,7.805256 0 0 0 7.917346,-7.80501 7.9177083,7.805256 0 0 0 -7.917346,-7.80541 z"
         style="opacity:1;fill:none;fill-opacity:1;stroke:#ff2a2a;stroke-width:0.26458332;stroke-linecap:round;stroke-linejoin:round;stroke-miterlimit:4;stroke-dasharray:none;stroke-opacity:1;paint-order:stroke fill markers" />
      <ellipse
         ry="0.46372348"
         rx="0.46372345"
         cy="217.625"
         cx="39.629169"
         id="path836"
         style="opacity:1;fill:#28b8f3;fill-opacity:1;stroke:#ffffff;stroke-width:0.5291667;stroke-linecap:round;stroke-linejoin:round;stroke-miterlimit:4;stroke-dasharray:none;stroke-opacity:1;paint-order:stroke fill markers" />
      <circle
         r="11.509375"
         style="opacity:1;fill:none;fill-opacity:1;stroke:#28b8f3;stroke-width:0.26458332;stroke-linecap:round;stroke-linejoin:round;stroke-miterlimit:4;stroke-dasharray:none;stroke-opacity:1;paint-order:stroke fill markers"
         id="circle849"
         cx="39.629169"
         cy="217.625" />
      <g
         transform="translate(1.1e-5,0.13227266)"
         id="g1053">
        <path
           style="opacity:1;fill:#ff0000;fill-opacity:1;stroke:none;stroke-width:1.00157475;stroke-linecap:round;stroke-linejoin:round;stroke-miterlimit:4;stroke-dasharray:none;stroke-opacity:1;paint-order:stroke fill markers"
           d="M 24.779297 481 L 24.779297 482 L 32.703125 482 A 43.499998 43.499998 0 0 1 32.855469 481 L 24.779297 481 z M 118.50391 481 A 43.499998 43.499998 0 0 1 118.63672 482 L 126.53906 482 L 126.53906 481 L 118.50391 481 z M 24.779297 495 L 24.779297 496 L 32.816406 496 A 43.499998 43.499998 0 0 1 32.683594 495 L 24.779297 495 z M 118.61523 495 A 43.499998 43.499998 0 0 1 118.46484 496 L 126.53906 496 L 126.53906 495 L 118.61523 495 z "
           transform="matrix(0.26458334,0,0,0.26458334,-1.103038e-5,138.11771)"
           id="rect865" />
        <circle
           style="opacity:1;fill:none;fill-opacity:1;stroke:#ff2a2a;stroke-width:0.26458334;stroke-linecap:round;stroke-linejoin:round;stroke-miterlimit:4;stroke-dasharray:none;stroke-opacity:1;paint-order:stroke fill markers"
           id="circle857"
           cx="20.018255"
           cy="267.36667"
           r="11.509375" />
        <path
           inkscape:connector-curvature="0"
           style="color:#000000;font-style:normal;font-variant:normal;font-weight:normal;font-stretch:normal;font-size:medium;line-height:normal;font-family:sans-serif;font-variant-ligatures:normal;font-variant-position:normal;font-variant-caps:normal;font-variant-numeric:normal;font-variant-alternates:normal;font-feature-settings:normal;text-indent:0;text-align:start;text-decoration:none;text-decoration-line:none;text-decoration-style:solid;text-decoration-color:#000000;letter-spacing:normal;word-spacing:normal;text-transform:none;writing-mode:lr-tb;direction:ltr;text-orientation:mixed;dominant-baseline:auto;baseline-shift:baseline;text-anchor:start;white-space:normal;shape-padding:0;clip-rule:nonzero;display:inline;overflow:visible;visibility:visible;opacity:1;isolation:auto;mix-blend-mode:normal;color-interpolation:sRGB;color-interpolation-filters:linearRGB;solid-color:#000000;solid-opacity:1;vector-effect:none;fill:#ff2a2a;fill-opacity:1;fill-rule:nonzero;stroke:none;stroke-width:0.99999994;stroke-linecap:round;stroke-linejoin:round;stroke-miterlimit:4;stroke-dasharray:none;stroke-dashoffset:0;stroke-opacity:1;paint-order:stroke fill markers;color-rendering:auto;image-rendering:auto;shape-rendering:auto;text-rendering:auto;enable-background:accumulate"
           d="m 75.65625,1006.0195 c -2.479351,0 -4.494133,2.0226 -4.494141,4.502 8e-6,2.4793 2.01479,4.4961 4.494141,4.4961 2.479355,0 4.503899,-2.0168 4.503906,-4.4961 -7e-6,-2.4794 -2.024551,-4.502 -4.503906,-4.502 z m 0,1.0039 c 1.398378,0 2.5912,0.8163 3.152344,1.9961 h -6.302735 c 0.561145,-1.1798 1.752016,-1.9961 3.150391,-1.9961 z m -3.152344,4.9961 h 6.306641 c -0.560336,1.182 -1.754354,2.002 -3.154297,2.002 -1.399941,0 -2.592007,-0.82 -3.152344,-2.002 z"
           transform="scale(0.26458333)"
           id="path894" />
        <path
           style="opacity:1;fill:#ff0000;fill-opacity:1;stroke:none;stroke-width:0.26499999;stroke-linecap:round;stroke-linejoin:round;stroke-miterlimit:4;stroke-dasharray:none;stroke-opacity:1;paint-order:stroke fill markers"
           d="m 19.237683,263.1416 v 2.24068 h -2.224154 v 0.26458 h 2.224154 0.264583 v -0.26458 -2.24068 z m 1.296564,0 v 2.24068 0.26458 h 0.264583 2.224151 v -0.26458 H 20.79883 v -2.24068 z m -3.520718,5.94485 v 0.26458 h 2.224154 v 2.2407 h 0.264583 v -2.2407 -0.26458 h -0.264583 z m 3.520718,0 v 0.26458 2.2407 h 0.264583 v -2.2407 h 2.224151 v -0.26458 H 20.79883 Z"
           id="rect998"
           inkscape:connector-curvature="0" />
      </g>
      <path
         inkscape:connector-curvature="0"
         id="path1061-9"
         d="m 59.132834,239.05674 c -0.65599,0 -1.18907,0.53514 -1.18907,1.19115 0,0.65598 0.53308,1.1896 1.18907,1.1896 0.656,0 1.19166,-0.53362 1.19166,-1.1896 0,-0.65601 -0.53566,-1.19115 -1.19166,-1.19115 z m 0,0.26561 c 0.36999,0 0.68559,0.21598 0.83406,0.52814 h -1.6676 c 0.14847,-0.31216 0.46355,-0.52814 0.83354,-0.52814 z m -0.83406,1.32189 h 1.66864 c -0.14826,0.31274 -0.46418,0.52969 -0.83458,0.52969 -0.3704,0 -0.6858,-0.21695 -0.83406,-0.52969 z"
         style="color:#000000;font-style:normal;font-variant:normal;font-weight:normal;font-stretch:normal;font-size:medium;line-height:normal;font-family:sans-serif;font-variant-ligatures:normal;font-variant-position:normal;font-variant-caps:normal;font-variant-numeric:normal;font-variant-alternates:normal;font-feature-settings:normal;text-indent:0;text-align:start;text-decoration:none;text-decoration-line:none;text-decoration-style:solid;text-decoration-color:#000000;letter-spacing:normal;word-spacing:normal;text-transform:none;writing-mode:lr-tb;direction:ltr;text-orientation:mixed;dominant-baseline:auto;baseline-shift:baseline;text-anchor:start;white-space:normal;shape-padding:0;clip-rule:nonzero;display:inline;overflow:visible;visibility:visible;opacity:1;isolation:auto;mix-blend-mode:normal;color-interpolation:sRGB;color-interpolation-filters:linearRGB;solid-color:#000000;solid-opacity:1;vector-effect:none;fill:#ff2a2a;fill-opacity:1;fill-rule:nonzero;stroke:none;stroke-width:0.26458332;stroke-linecap:round;stroke-linejoin:round;stroke-miterlimit:4;stroke-dasharray:none;stroke-dashoffset:0;stroke-opacity:1;paint-order:stroke fill markers;color-rendering:auto;image-rendering:auto;shape-rendering:auto;text-rendering:auto;enable-background:accumulate" />
      <path
         style="color:#000000;font-style:normal;font-variant:normal;font-weight:normal;font-stretch:normal;font-size:medium;line-height:normal;font-family:sans-serif;font-variant-ligatures:normal;font-variant-position:normal;font-variant-caps:normal;font-variant-numeric:normal;font-variant-alternates:normal;font-feature-settings:normal;text-indent:0;text-align:start;text-decoration:none;text-decoration-line:none;text-decoration-style:solid;text-decoration-color:#000000;letter-spacing:normal;word-spacing:normal;text-transform:none;writing-mode:lr-tb;direction:ltr;text-orientation:mixed;dominant-baseline:auto;baseline-shift:baseline;text-anchor:start;white-space:normal;shape-padding:0;clip-rule:nonzero;display:inline;overflow:visible;visibility:visible;opacity:1;isolation:auto;mix-blend-mode:normal;color-interpolation:sRGB;color-interpolation-filters:linearRGB;solid-color:#000000;solid-opacity:1;vector-effect:none;fill:#ff2a2a;fill-opacity:1;fill-rule:nonzero;stroke:none;stroke-width:0.26458332;stroke-linecap:round;stroke-linejoin:round;stroke-miterlimit:4;stroke-dasharray:none;stroke-dashoffset:0;stroke-opacity:1;paint-order:stroke fill markers;color-rendering:auto;image-rendering:auto;shape-rendering:auto;text-rendering:auto;enable-background:accumulate"
         d="m 19.974478,239.05674 c -0.655995,0 -1.189073,0.53514 -1.189075,1.19115 2e-6,0.65598 0.53308,1.1896 1.189075,1.1896 0.655996,0 1.191656,-0.53362 1.191658,-1.1896 -2e-6,-0.65601 -0.535662,-1.19115 -1.191658,-1.19115 z m 0,0.26561 c 0.369987,0 0.685588,0.21598 0.834057,0.52814 h -1.667598 c 0.148469,-0.31216 0.463554,-0.52814 0.833541,-0.52814 z m -0.834058,1.32189 h 1.668632 c -0.148256,0.31274 -0.464173,0.52969 -0.834574,0.52969 -0.370402,0 -0.685802,-0.21695 -0.834058,-0.52969 z"
         id="path1106"
         inkscape:connector-curvature="0" />
      <path
         style="color:#000000;font-style:normal;font-variant:normal;font-weight:normal;font-stretch:normal;font-size:medium;line-height:normal;font-family:sans-serif;font-variant-ligatures:normal;font-variant-position:normal;font-variant-caps:normal;font-variant-numeric:normal;font-variant-alternates:normal;font-feature-settings:normal;text-indent:0;text-align:start;text-decoration:none;text-decoration-line:none;text-decoration-style:solid;text-decoration-color:#000000;letter-spacing:normal;word-spacing:normal;text-transform:none;writing-mode:lr-tb;direction:ltr;text-orientation:mixed;dominant-baseline:auto;baseline-shift:baseline;text-anchor:start;white-space:normal;shape-padding:0;clip-rule:nonzero;display:inline;overflow:visible;visibility:visible;opacity:1;isolation:auto;mix-blend-mode:normal;color-interpolation:sRGB;color-interpolation-filters:linearRGB;solid-color:#000000;solid-opacity:1;vector-effect:none;fill:#ff2a2a;fill-opacity:1;fill-rule:nonzero;stroke:none;stroke-width:0.26458332;stroke-linecap:round;stroke-linejoin:round;stroke-miterlimit:4;stroke-dasharray:none;stroke-dashoffset:0;stroke-opacity:1;paint-order:stroke fill markers;color-rendering:auto;image-rendering:auto;shape-rendering:auto;text-rendering:auto;enable-background:accumulate"
         d="m 59.132834,193.54812 c -0.65599,0 -1.18907,0.53514 -1.18907,1.19115 0,0.65598 0.53308,1.1896 1.18907,1.1896 0.656,0 1.19166,-0.53362 1.19166,-1.1896 0,-0.65601 -0.53566,-1.19115 -1.19166,-1.19115 z m 0,0.26561 c 0.36999,0 0.68559,0.21598 0.83406,0.52814 h -1.6676 c 0.14847,-0.31216 0.46355,-0.52814 0.83354,-0.52814 z m -0.83406,1.32189 h 1.66864 c -0.14826,0.31274 -0.46418,0.52969 -0.83458,0.52969 -0.3704,0 -0.6858,-0.21695 -0.83406,-0.52969 z"
         id="path1108"
         inkscape:connector-curvature="0" />
      <path
         inkscape:connector-curvature="0"
         id="path1110"
         d="m 19.974478,193.54812 c -0.655995,0 -1.189073,0.53514 -1.189075,1.19115 2e-6,0.65598 0.53308,1.1896 1.189075,1.1896 0.655996,0 1.191656,-0.53362 1.191658,-1.1896 -2e-6,-0.65601 -0.535662,-1.19115 -1.191658,-1.19115 z m 0,0.26561 c 0.369987,0 0.685588,0.21598 0.834057,0.52814 h -1.667598 c 0.148469,-0.31216 0.463554,-0.52814 0.833541,-0.52814 z m -0.834058,1.32189 h 1.668632 c -0.148256,0.31274 -0.464173,0.52969 -0.834574,0.52969 -0.370402,0 -0.685802,-0.21695 -0.834058,-0.52969 z"
         style="color:#000000;font-style:normal;font-variant:normal;font-weight:normal;font-stretch:normal;font-size:medium;line-height:normal;font-family:sans-serif;font-variant-ligatures:normal;font-variant-position:normal;font-variant-caps:normal;font-variant-numeric:normal;font-variant-alternates:normal;font-feature-settings:normal;text-indent:0;text-align:start;text-decoration:none;text-decoration-line:none;text-decoration-style:solid;text-decoration-color:#000000;letter-spacing:normal;word-spacing:normal;text-transform:none;writing-mode:lr-tb;direction:ltr;text-orientation:mixed;dominant-baseline:auto;baseline-shift:baseline;text-anchor:start;white-space:normal;shape-padding:0;clip-rule:nonzero;display:inline;overflow:visible;visibility:visible;opacity:1;isolation:auto;mix-blend-mode:normal;color-interpolation:sRGB;color-interpolation-filters:linearRGB;solid-color:#000000;solid-opacity:1;vector-effect:none;fill:#ff2a2a;fill-opacity:1;fill-rule:nonzero;stroke:none;stroke-width:0.26458332;stroke-linecap:round;stroke-linejoin:round;stroke-miterlimit:4;stroke-dasharray:none;stroke-dashoffset:0;stroke-opacity:1;paint-order:stroke fill markers;color-rendering:auto;image-rendering:auto;shape-rendering:auto;text-rendering:auto;enable-background:accumulate" />
      <rect
         y="190.63786"
         x="0.2490575"
         height="0.79375005"
         width="78.8769"
         id="rect1112"
         style="opacity:1;fill:#28b8f3;fill-opacity:1;stroke:none;stroke-width:0.52916658;stroke-linecap:round;stroke-linejoin:round;stroke-miterlimit:4;stroke-dasharray:none;stroke-opacity:1;paint-order:stroke fill markers" />
      <rect
         style="opacity:1;fill:#28b8f3;fill-opacity:1;stroke:none;stroke-width:0.52916658;stroke-linecap:round;stroke-linejoin:round;stroke-miterlimit:4;stroke-dasharray:none;stroke-opacity:1;paint-order:stroke fill markers"
         id="rect1114"
         width="78.8769"
         height="0.79375005"
         x="0.2490575"
         y="243.55382" />
      <rect
         transform="scale(-1,1)"
         ry="19.436874"
         y="138.51459"
         x="-79.110413"
         height="158.22083"
         width="78.845833"
         id="rect826"
         style="opacity:1;fill:none;fill-opacity:1;stroke:#070707;stroke-width:0.5291667;stroke-linecap:round;stroke-linejoin:round;stroke-miterlimit:4;stroke-dasharray:none;stroke-opacity:1;paint-order:normal" />
      <g
         id="g866"
         transform="translate(39.158363,0.13227266)">
        <path
           id="path858"
           transform="matrix(0.26458334,0,0,0.26458334,-1.103038e-5,138.11771)"
           d="m 24.779297,481 v 1 h 7.923828 a 43.499998,43.499998 0 0 1 0.152344,-1 z m 93.724613,0 a 43.499998,43.499998 0 0 1 0.13281,1 h 7.90234 v -1 z m -93.724613,14 v 1 h 8.037109 a 43.499998,43.499998 0 0 1 -0.132812,-1 z m 93.835933,0 a 43.499998,43.499998 0 0 1 -0.15039,1 h 8.07422 v -1 z"
           style="opacity:1;fill:#ff0000;fill-opacity:1;stroke:none;stroke-width:1.00157475;stroke-linecap:round;stroke-linejoin:round;stroke-miterlimit:4;stroke-dasharray:none;stroke-opacity:1;paint-order:stroke fill markers"
           inkscape:connector-curvature="0" />
        <circle
           r="11.509375"
           cy="267.36667"
           cx="20.018255"
           id="circle860"
           style="opacity:1;fill:none;fill-opacity:1;stroke:#ff2a2a;stroke-width:0.26458335;stroke-linecap:round;stroke-linejoin:round;stroke-miterlimit:4;stroke-dasharray:none;stroke-opacity:1;paint-order:stroke fill markers" />
        <path
           id="path862"
           transform="scale(0.26458333)"
           d="m 75.65625,1006.0195 c -2.479351,0 -4.494133,2.0226 -4.494141,4.502 8e-6,2.4793 2.01479,4.4961 4.494141,4.4961 2.479355,0 4.503899,-2.0168 4.503906,-4.4961 -7e-6,-2.4794 -2.024551,-4.502 -4.503906,-4.502 z m 0,1.0039 c 1.398378,0 2.5912,0.8163 3.152344,1.9961 h -6.302735 c 0.561145,-1.1798 1.752016,-1.9961 3.150391,-1.9961 z m -3.152344,4.9961 h 6.306641 c -0.560336,1.182 -1.754354,2.002 -3.154297,2.002 -1.399941,0 -2.592007,-0.82 -3.152344,-2.002 z"
           style="color:#000000;font-style:normal;font-variant:normal;font-weight:normal;font-stretch:normal;font-size:medium;line-height:normal;font-family:sans-serif;font-variant-ligatures:normal;font-variant-position:normal;font-variant-caps:normal;font-variant-numeric:normal;font-variant-alternates:normal;font-feature-settings:normal;text-indent:0;text-align:start;text-decoration:none;text-decoration-line:none;text-decoration-style:solid;text-decoration-color:#000000;letter-spacing:normal;word-spacing:normal;text-transform:none;writing-mode:lr-tb;direction:ltr;text-orientation:mixed;dominant-baseline:auto;baseline-shift:baseline;text-anchor:start;white-space:normal;shape-padding:0;clip-rule:nonzero;display:inline;overflow:visible;visibility:visible;opacity:1;isolation:auto;mix-blend-mode:normal;color-interpolation:sRGB;color-interpolation-filters:linearRGB;solid-color:#000000;solid-opacity:1;vector-effect:none;fill:#ff2a2a;fill-opacity:1;fill-rule:nonzero;stroke:none;stroke-width:0.99999994;stroke-linecap:round;stroke-linejoin:round;stroke-miterlimit:4;stroke-dasharray:none;stroke-dashoffset:0;stroke-opacity:1;paint-order:stroke fill markers;color-rendering:auto;image-rendering:auto;shape-rendering:auto;text-rendering:auto;enable-background:accumulate"
           inkscape:connector-curvature="0" />
        <path
           inkscape:connector-curvature="0"
           id="path864"
           d="m 19.237683,263.1416 v 2.24068 h -2.224154 v 0.26458 h 2.224154 0.264583 v -0.26458 -2.24068 z m 1.296564,0 v 2.24068 0.26458 h 0.264583 2.224151 v -0.26458 H 20.79883 v -2.24068 z m -3.520718,5.94485 v 0.26458 h 2.224154 v 2.2407 h 0.264583 v -2.2407 -0.26458 h -0.264583 z m 3.520718,0 v 0.26458 2.2407 h 0.264583 v -2.2407 h 2.224151 v -0.26458 H 20.79883 Z"
           style="opacity:1;fill:#ff0000;fill-opacity:1;stroke:none;stroke-width:0.26499999;stroke-linecap:round;stroke-linejoin:round;stroke-miterlimit:4;stroke-dasharray:none;stroke-opacity:1;paint-order:stroke fill markers" />
      </g>
    </g>
  </g>
</svg>
